HIERARCHY
ROOT Hips
{
	OFFSET 0.000000 0.000000 0.000000 
	CHANNELS 6 Xposition Yposition Zposition Zrotation Yrotation Xrotation
	JOINT LeftUpLeg
	{
		OFFSET 1.363060 -1.794630 0.839290 
		CHANNELS 3 Zrotation Yrotation Xrotation
		JOINT LeftLeg
		{
			OFFSET 2.448110 -6.726130 0.000000 
			CHANNELS 3 Zrotation Yrotation Xrotation
			JOINT LeftFoot
			{
				OFFSET 2.562200 -7.039590 0.000000 
				CHANNELS 3 Zrotation Yrotation Xrotation
				JOINT LeftToeBase
				{
					OFFSET 0.157640 -0.433110 2.322550 
					CHANNELS 3 Zrotation Yrotation Xrotation
					End Site
					{
						OFFSET 0.000000 0.000000 0.000000 
					}
				}
			}
		}
	}
	JOINT RightUpLeg
	{
		OFFSET -1.305520 -1.794630 0.839290 
		CHANNELS 3 Zrotation Yrotation Xrotation
		JOINT RightLeg
		{
			OFFSET -2.542530 -6.985550 0.000000 
			CHANNELS 3 Zrotation Yrotation Xrotation
			JOINT RightFoot
			{
				OFFSET -2.568260 -7.056230 0.000000 
				CHANNELS 3 Zrotation Yrotation Xrotation
				JOINT RightToeBase
				{
					OFFSET -0.164730 -0.452590 2.363150 
					CHANNELS 3 Zrotation Yrotation Xrotation
					End Site
					{
						OFFSET 0.000000 0.000000 0.000000 
					}
				}
			}
		}
	}
	JOINT Spine
	{
		OFFSET 0.028270 2.035590 -0.193380 
		CHANNELS 3 Zrotation Yrotation Xrotation
		JOINT Spine1
		{
			OFFSET 0.056720 2.048850 -0.042750 
			CHANNELS 3 Zrotation Yrotation Xrotation
			JOINT Neck1
			{
				OFFSET -0.054170 1.746240 0.172020 
				CHANNELS 3 Zrotation Yrotation Xrotation
				JOINT Head
				{
					OFFSET 0.104070 1.761360 -0.123970 
					CHANNELS 3 Zrotation Yrotation Xrotation
					End Site
					{
						OFFSET 0.000000 0.000000 0.000000 
					}
				}
			}
			JOINT LeftArm
			{
				OFFSET 3.362410 1.200890 -0.311210 
				CHANNELS 3 Zrotation Yrotation Xrotation
				JOINT LeftForeArm
				{
					OFFSET 4.983000 -0.000000 -0.000000 
					CHANNELS 3 Zrotation Yrotation Xrotation
					JOINT LeftHand
					{
						OFFSET 3.483560 -0.000000 -0.000000 
						CHANNELS 3 Zrotation Yrotation Xrotation
						JOINT LeftHandIndex1
						{
							OFFSET 0.715260 -0.000000 -0.000000 
							CHANNELS 3 Zrotation Yrotation Xrotation
							End Site
							{
								OFFSET 0.000000 0.000000 0.000000 
							}
						}
					}
				}
			}
			JOINT RightArm
			{
				OFFSET -3.136600 1.374050 -0.404650 
				CHANNELS 3 Zrotation Yrotation Xrotation
				JOINT RightForeArm
				{
					OFFSET -5.241900 -0.000000 -0.000000 
					CHANNELS 3 Zrotation Yrotation Xrotation
					JOINT RightHand
					{
						OFFSET -3.444170 -0.000000 -0.000000 
						CHANNELS 3 Zrotation Yrotation Xrotation
						JOINT RightHandIndex1
						{
							OFFSET -0.622530 -0.000000 -0.000000 
							CHANNELS 3 Zrotation Yrotation Xrotation
							End Site
							{
								OFFSET 0.000000 0.000000 0.000000 
							}
						}
					}
				}
			}
		}
	}
}
MOTION
Frames: 18
Frame Time: 0.041667
-2.063732 18.011760 39.447933 179.127828 2.634550 -177.920153 -23.563419 -11.889129 -18.828557 1.185826 7.951782 27.500826 -0.634137 3.228249 4.227270 0.158500 -2.564900 -7.069700 18.873920 7.311934 -12.506019 -11.950456 -16.033348 62.352482 2.786593 -18.765751 16.995573 -0.776200 -5.625100 15.700300 5.785836 -2.255761 15.184824 5.698780 -0.181365 -12.787612 -2.114110 0.138130 17.403246 -1.172200 0.092200 7.219200 -89.065664 20.861339 13.463438 21.473276 -29.619364 -5.320730 0.275935 -0.555222 -6.507470 -7.125000 0.000000 0.000000 86.677113 -14.734565 -38.174430 -72.097771 59.544674 -40.863312 -0.509411 0.207908 -36.148443 7.125000 0.000000 0.000000 
-2.070192 18.006791 39.330956 178.872573 1.870162 -178.041505 -23.973632 -12.129823 -18.094388 1.161511 7.848471 27.348422 -0.496836 2.634732 4.382569 0.108600 -2.124500 -5.849900 18.846497 7.003885 -13.980773 -12.482011 -16.338560 64.272492 2.851874 -18.525429 15.834672 -0.626600 -5.065500 14.095400 5.616877 -2.525858 15.325464 5.878692 -0.295907 -12.798922 -2.205391 0.165837 17.659073 -1.229600 0.092900 7.421300 -88.636351 20.329423 13.852612 21.293006 -29.393254 -5.217657 0.275777 -0.553590 -6.773480 -7.125000 0.000000 0.000000 86.389624 -14.512644 -38.346509 -74.062756 59.775786 -42.424899 -0.535798 0.221464 -34.827075 7.125000 0.000000 0.000000 
-2.111436 18.010667 39.146001 178.712021 2.518295 -178.525697 -24.494111 -11.742339 -16.851865 1.154076 7.746253 27.246327 -0.524331 2.690425 3.921640 0.046400 -1.390700 -3.824400 18.537530 7.616456 -14.618746 -12.903965 -16.568441 65.835281 2.761408 -17.782671 15.080130 -0.470500 -4.399300 12.202700 5.492280 -2.437450 15.558657 5.858000 -0.260308 -12.585790 -2.457030 0.417679 17.679626 -1.277200 0.197600 7.415200 -88.686184 20.388197 13.758407 21.257860 -29.345564 -5.197444 0.271313 -0.557626 -7.064862 -7.125000 0.000000 0.000000 85.641069 -14.550042 -37.995542 -76.023681 59.944864 -43.977725 -0.556605 0.213348 -33.597487 7.125000 0.000000 0.000000 
-2.130220 18.004704 39.013819 178.581251 2.288734 -178.515897 -24.824199 -11.667838 -16.281330 1.138394 7.676934 27.162315 -0.415935 2.235212 3.557376 0.045700 -1.380100 -3.795400 18.479783 7.736503 -16.089027 -13.356942 -16.822103 67.453385 2.829419 -17.577012 13.901420 -0.380600 -3.961800 10.969200 5.620459 -2.652611 15.180513 6.188749 -0.331326 -12.970865 -2.736947 0.562816 17.683820 -1.314800 0.258500 7.312600 -88.828742 20.563972 13.475626 21.123333 -29.171439 -5.124769 0.267101 -0.562172 -6.813896 -7.125000 0.000000 0.000000 84.723603 -14.909752 -37.568549 -78.294870 60.090236 -45.799746 -0.564652 0.213939 -33.157573 7.125000 0.000000 0.000000 
-2.154570 18.002219 38.867524 178.482929 2.267110 -178.654585 -25.126794 -11.487232 -15.552914 1.129409 7.617922 27.117587 -0.347631 1.976255 2.576037 0.098800 -2.027000 -5.580300 18.443492 7.935466 -17.303557 -13.742063 -17.022801 68.822310 2.979118 -17.597506 12.427723 -0.357400 -3.841000 10.629600 5.467388 -2.768992 15.435486 6.117484 -0.409895 -12.616380 -2.796393 0.562540 17.460794 -1.322500 0.248600 7.222200 -88.632335 19.979525 13.317862 20.887344 -28.874705 -4.998659 0.265996 -0.560976 -6.422287 -7.125000 0.000000 0.000000 84.254680 -14.565526 -37.351433 -80.688493 60.196957 -47.755484 -0.571939 0.222695 -33.150211 7.125000 0.000000 0.000000 
-2.159837 17.992579 38.760585 178.343237 1.459571 -178.682082 -25.381015 -11.524257 -15.043042 1.125735 7.571530 27.076774 -0.265197 1.632776 2.433271 0.166900 -2.632100 -7.256200 18.532326 7.684861 -18.844429 -14.108236 -17.223905 70.114736 3.161199 -17.777201 10.866564 -0.369200 -3.902900 10.803500 5.441698 -3.135834 15.252643 6.358573 -0.565171 -12.855348 -3.087013 0.678504 17.376072 -1.415200 0.298600 7.147100 -88.419617 19.713592 13.420139 20.857720 -28.846657 -4.988940 0.249921 -0.555024 -6.248881 -7.125000 0.000000 0.000000 83.828793 -14.364436 -37.239295 -83.229774 60.252519 -49.863033 -0.577141 0.232628 -33.625174 7.125000 0.000000 0.000000 
-2.180807 17.985820 38.628801 178.190322 1.303193 -178.710378 -25.716849 -11.321019 -14.525437 1.132697 7.543202 27.070747 -0.343920 1.936578 2.195689 0.181700 -2.745300 -7.570600 18.426008 7.899075 -20.199854 -14.382289 -17.390261 71.141430 3.280793 -17.683031 9.243297 -0.481700 -4.450900 12.348700 5.379265 -3.242358 15.234825 6.453224 -0.614080 -12.857105 -3.383156 0.943970 17.725193 -1.515600 0.418400 7.307000 -88.295517 19.347344 13.389499 20.902889 -28.909501 -5.008988 0.243533 -0.555981 -6.039525 -7.125000 0.000000 0.000000 83.398665 -13.906848 -37.297972 -85.867531 60.253891 -52.069205 -0.584476 0.262690 -33.607202 7.125000 0.000000 0.000000 
-2.207442 17.976975 38.488270 177.915024 1.354073 -178.790208 -26.216056 -11.065568 -13.929318 1.148381 7.521768 27.113584 -0.377058 2.075819 1.686855 0.190800 -2.812900 -7.758400 18.117546 8.201480 -21.442576 -14.607118 -17.539778 72.023851 3.314389 -17.314055 7.720113 -0.446400 -4.286900 11.885300 5.170306 -3.266962 15.337497 6.434941 -0.635448 -12.755747 -3.459587 1.134583 17.958866 -1.548100 0.506300 7.447400 -88.142195 18.944869 13.241243 21.028297 -29.078261 -5.070204 0.241089 -0.554056 -5.685336 -7.125000 0.000000 0.000000 83.049991 -13.367569 -37.296469 -88.597716 60.193319 -54.381023 -0.606297 0.311942 -32.844036 7.125000 0.000000 0.000000 
-2.228015 17.960477 38.357877 177.700033 1.470165 -178.816417 -26.609754 -10.689152 -13.520199 1.164135 7.508943 27.172040 -0.317220 1.859671 1.247563 0.216000 -2.991900 -8.256100 17.898497 8.665796 -22.745048 -14.783758 -17.673375 72.733347 3.279957 -16.831855 6.563634 -0.448900 -4.298600 11.918400 5.093654 -3.360745 15.163624 6.598088 -0.667279 -12.920572 -3.622199 1.372221 18.204224 -1.574600 0.622200 7.502000 -88.140479 18.902638 12.957829 21.229137 -29.334830 -5.169351 0.241647 -0.554570 -5.446081 -7.125000 0.000000 0.000000 82.474861 -13.067932 -36.755049 -91.240680 60.066135 -56.655673 -0.638203 0.340986 -31.317373 7.125000 0.000000 0.000000 
-2.245805 17.940799 38.227682 177.542140 1.718777 -178.679494 -26.884427 -10.274362 -13.271314 1.172439 7.494987 27.203516 -0.226838 1.531630 0.871611 0.163800 -2.607300 -7.187300 17.755915 9.311744 -24.189907 -14.917078 -17.794090 73.263198 3.261806 -16.528117 5.672988 -0.407100 -4.096200 11.347400 5.092111 -3.379399 14.909046 6.749710 -0.664318 -13.089676 -3.628894 1.504215 18.490638 -1.530100 0.693800 7.543100 -88.208633 18.914778 12.687796 21.493245 -29.670490 -5.305065 0.238120 -0.556009 -5.147594 -7.125000 0.000000 0.000000 81.846410 -12.837642 -36.048947 -94.056909 59.867849 -59.121889 -0.668861 0.361795 -29.483967 7.125000 0.000000 0.000000 
-2.267173 17.926487 38.093214 177.426885 1.845514 -178.644951 -27.152794 -9.869332 -12.922749 1.185735 7.482729 27.244867 -0.176266 1.352739 0.572212 0.159700 -2.574700 -7.096800 17.648056 9.678074 -25.456798 -14.973021 -17.882017 73.554030 3.209729 -16.113513 4.863926 -0.349600 -3.799100 10.512000 4.978512 -3.378768 14.960647 6.691836 -0.680673 -12.959928 -3.757921 1.500054 18.539602 -1.574500 0.686200 7.559400 -88.071000 18.420973 12.582595 21.625913 -29.846126 -5.371824 0.233497 -0.555860 -4.876743 -7.125000 0.000000 0.000000 81.457375 -12.316998 -35.390062 -97.015199 59.606039 -61.758480 -0.701705 0.389745 -27.551858 7.125000 0.000000 0.000000 
-2.288640 17.913071 37.959343 177.142005 1.905679 -178.763906 -27.610763 -9.399050 -12.410652 1.200282 7.454034 27.276411 -0.079241 0.997649 0.168304 0.167900 -2.639600 -7.276800 17.375579 9.938962 -26.529315 -14.951152 -17.950326 73.632773 3.109077 -15.470944 3.894615 -0.392800 -4.024400 11.145200 4.791748 -3.430744 15.091127 6.711285 -0.715068 -12.789898 -3.831447 1.606810 18.326218 -1.600000 0.733300 7.482600 -87.889299 17.852133 12.619348 21.697362 -29.940852 -5.405098 0.230977 -0.556003 -4.756404 -7.125000 0.000000 0.000000 81.086712 -11.691566 -34.506297 -100.016046 59.286837 -64.478013 -0.731115 0.426612 -25.540260 7.125000 0.000000 0.000000 
-2.309610 17.896573 37.826962 176.857118 1.969716 -178.832500 -28.069826 -9.019897 -11.908739 1.216394 7.432644 27.321423 0.019921 0.672800 -0.455902 0.136400 -2.380600 -6.558700 17.092613 10.272312 -27.667888 -14.862551 -18.004238 73.505138 2.951109 -14.658381 3.128143 -0.498700 -4.527500 12.565800 4.615153 -3.520748 15.051300 6.768700 -0.760262 -12.800757 -4.038484 1.767390 18.396742 -1.661000 0.806500 7.493200 -87.762548 17.578691 12.745626 21.963971 -30.276344 -5.546257 0.228439 -0.553963 -4.799652 -7.125000 0.000000 0.000000 80.591956 -11.155579 -33.526538 -102.745043 58.952070 -66.974504 -0.752133 0.484631 -23.426417 7.125000 0.000000 0.000000 
-2.327003 17.880969 37.695475 176.635903 1.892432 -178.831817 -28.442993 -8.714316 -11.504923 1.237684 7.425192 27.391107 0.097516 0.425237 -0.943545 0.110700 -2.145700 -5.908600 16.888652 10.527802 -28.798817 -14.720979 -18.045128 73.182811 2.887386 -14.238364 2.278918 -0.537200 -4.696200 13.044200 4.712126 -3.658836 14.780320 7.064481 -0.791780 -13.077962 -4.140578 1.880533 18.453985 -1.643400 0.855000 7.459000 -87.944288 17.593064 12.753890 22.303073 -30.696554 -5.733438 0.229486 -0.555008 -4.843836 -7.125000 0.000000 0.000000 79.809018 -10.916522 -32.364164 -105.573250 58.549957 -69.576076 -0.778946 0.533629 -21.307712 7.125000 0.000000 0.000000 
-2.344793 17.861390 37.566175 176.460812 1.852278 -178.802024 -28.752500 -8.507795 -11.186762 1.263701 7.434801 27.488796 0.128279 0.344217 -1.273541 0.145000 -2.454100 -6.762500 16.775456 10.820075 -29.893331 -14.543073 -18.058288 72.687125 2.936727 -14.325456 1.634109 -0.435600 -4.235100 11.739100 4.486266 -3.691570 14.947779 6.929265 -0.839757 -12.825193 -4.293020 1.899686 18.486169 -1.731400 0.858400 7.519400 -87.612432 17.049097 13.225806 22.621341 -31.089926 -5.909041 0.230834 -0.546968 -5.060825 -7.125000 0.000000 0.000000 79.555445 -10.219730 -31.296495 -108.425205 58.108265 -72.214650 -0.808127 0.606123 -18.953441 7.125000 0.000000 0.000000 
-2.365465 17.837041 37.434589 176.343342 2.046052 -178.743846 -29.029508 -8.146105 -10.923239 1.296193 7.456973 27.620529 0.145417 0.346628 -1.734501 0.150200 -2.497100 -6.881500 16.683278 11.296273 -31.004756 -14.307508 -18.053782 72.052386 2.898288 -14.050284 0.909569 -0.477200 -4.430100 12.289800 4.360192 -3.662326 15.014610 6.858211 -0.847442 -12.668148 -4.336278 2.058957 18.560917 -1.752000 0.935600 7.573000 -87.356101 16.589062 13.793718 22.988417 -31.532363 -6.110381 0.231941 -0.544112 -5.511140 -7.125000 0.000000 0.000000 79.180780 -9.531141 -30.001821 -111.070461 57.655492 -74.667685 -0.826498 0.675889 -16.287290 7.125000 0.000000 0.000000 
-2.386435 17.814480 37.304693 176.161909 2.140355 -178.757397 -29.395166 -7.935331 -10.491318 1.330742 7.473302 27.754578 0.171247 0.335388 -2.311791 0.141500 -2.424400 -6.680200 16.496696 11.579337 -32.008860 -14.007500 -18.031079 71.227997 2.821104 -13.637166 0.224544 -0.659700 -5.195000 14.465500 4.318386 -3.685757 14.924074 6.933247 -0.852237 -12.770362 -4.438873 2.178389 18.619936 -1.774500 0.989300 7.589700 -87.264578 16.347297 14.259161 23.398854 -32.020402 -6.341730 0.236782 -0.541707 -6.008973 -7.125000 0.000000 0.000000 78.674971 -8.928774 -28.577448 -113.522007 57.194521 -76.932947 -0.850483 0.731636 -13.293724 7.125000 0.000000 0.000000 
-2.403430 17.792616 37.174996 175.917011 2.056381 -178.714908 -29.808535 -7.719393 -10.152483 1.353450 7.479231 27.841074 0.194275 0.364565 -2.983695 0.231300 -3.095700 -8.545300 16.271381 11.669144 -33.031638 -13.656351 -17.988646 70.223791 2.777217 -13.381914 -0.330629 -0.627700 -5.069700 14.107300 4.074622 -3.686928 15.022646 6.819991 -0.874241 -12.656252 -4.461813 2.150194 18.648097 -1.823600 0.976100 7.651800 -86.914826 15.598019 14.704746 23.671338 -32.351637 -6.497400 0.241046 -0.533693 -6.405729 -7.125000 0.000000 0.000000 78.449318 -8.078982 -27.324010 -115.932150 56.705473 -79.148821 -0.866822 0.794478 -10.452615 7.125000 0.000000 0.000000 
